<?xml version="1.0" encoding="UTF-8"?>
<svg width="400" height="400" viewBox="0 0 400 400" fill="none" xmlns="http://www.w3.org/2000/svg">
    <!-- Background Circle -->
    <circle cx="200" cy="200" r="180" fill="#EEF2FF" opacity="0.5"/>
    
    <!-- Target Circles -->
    <circle cx="200" cy="200" r="120" stroke="#4F46E5" stroke-width="2" stroke-dasharray="4 4" opacity="0.2"/>
    <circle cx="200" cy="200" r="80" stroke="#4F46E5" stroke-width="2" stroke-dasharray="4 4" opacity="0.4"/>
    <circle cx="200" cy="200" r="40" stroke="#4F46E5" stroke-width="2" opacity="0.6"/>
    
    <!-- Focus Point -->
    <circle cx="200" cy="200" r="8" fill="#4F46E5"/>
    
    <!-- Skill Arrows -->
    <g opacity="0.8">
        <!-- Arrow 1 -->
        <path d="M200 120L200 80" stroke="#4F46E5" stroke-width="2" stroke-linecap="round"/>
        <path d="M190 90L200 80L210 90" stroke="#4F46E5" stroke-width="2" stroke-linecap="round" stroke-linejoin="round"/>
        
        <!-- Arrow 2 -->
        <path d="M280 200L320 200" stroke="#4F46E5" stroke-width="2" stroke-linecap="round"/>
        <path d="M310 190L320 200L310 210" stroke="#4F46E5" stroke-width="2" stroke-linecap="round" stroke-linejoin="round"/>
        
        <!-- Arrow 3 -->
        <path d="M200 280L200 320" stroke="#4F46E5" stroke-width="2" stroke-linecap="round"/>
        <path d="M190 310L200 320L210 310" stroke="#4F46E5" stroke-width="2" stroke-linecap="round" stroke-linejoin="round"/>
        
        <!-- Arrow 4 -->
        <path d="M120 200L80 200" stroke="#4F46E5" stroke-width="2" stroke-linecap="round"/>
        <path d="M90 190L80 200L90 210" stroke="#4F46E5" stroke-width="2" stroke-linecap="round" stroke-linejoin="round"/>
    </g>
    
    <!-- Progress Indicators -->
    <circle cx="200" cy="160" r="4" fill="#4F46E5" opacity="0.8"/>
    <circle cx="240" cy="200" r="4" fill="#4F46E5" opacity="0.8"/>
    <circle cx="200" cy="240" r="4" fill="#4F46E5" opacity="0.8"/>
    <circle cx="160" cy="200" r="4" fill="#4F46E5" opacity="0.8"/>
</svg>
